<?xml version="1.0" encoding="UTF-8"?> <svg xmlns="http://www.w3.org/2000/svg" viewBox="0 0 105.9 100.14"> <defs> <style>.cls-1{fill:#fff;}</style> </defs> <title>Ресурс 6</title> <g id="Слой_2" data-name="Слой 2"> <g id="OUTLINE"> <polygon class="cls-1" points="32.26 37.51 28.45 37.51 28.45 52.91 39.68 52.91 39.68 49.48 32.26 49.48 32.26 37.51"></polygon> <rect class="cls-1" x="41.77" y="37.51" width="3.83" height="15.4"></rect> <polygon class="cls-1" points="57.63 52.91 63.73 37.51 59.43 37.51 55.48 47.48 51.54 37.51 47.23 37.51 53.33 52.91 57.63 52.91"></polygon> <polygon class="cls-1" points="77.45 49.48 69.16 49.48 69.16 46.77 76.69 46.77 76.69 43.34 69.16 43.34 69.16 40.94 77.45 40.94 77.45 37.51 65.33 37.51 65.33 52.91 77.45 52.91 77.45 49.48"></polygon> <path class="cls-1" d="M94.15,7.36h-13V3.1a1.75,1.75,0,0,0-2.4-1.62l-12.6,5V1.75A1.75,1.75,0,0,0,64.45,0H37.28a1.75,1.75,0,0,0-1.75,1.75V7.36H11.75A11.76,11.76,0,0,0,0,19.11V67.36A11.76,11.76,0,0,0,11.75,79.11H41.89a23,23,0,0,1-3.84,8.83H23.64a8.16,8.16,0,0,0-5.88,2.52L11.41,95.2a1.71,1.71,0,0,0-.25.22,2.82,2.82,0,0,0,2.09,4.72h79.4a2.82,2.82,0,0,0,2.09-4.72,1.71,1.71,0,0,0-.25-.22l-6.35-4.74a8.16,8.16,0,0,0-5.88-2.52H67.85A23,23,0,0,1,64,79.11H94.15A11.76,11.76,0,0,0,105.9,67.36V19.11A11.76,11.76,0,0,0,94.15,7.36ZM37.28,28.2H64.45a1.75,1.75,0,0,0,1.75-1.75V21.68l12.6,5a1.75,1.75,0,0,0,2.4-1.62V20.86h8a3.26,3.26,0,0,1,3.25,3.25V62.36a3.26,3.26,0,0,1-3.25,3.25H16.75a3.26,3.26,0,0,1-3.25-3.25V24.11a3.26,3.26,0,0,1,3.25-3.25H35.53v5.59A1.75,1.75,0,0,0,37.28,28.2ZM77.7,5.68V22.52L66.2,17.91V10.28ZM39,3.5H62.7V24.7H39ZM85.67,93a1.71,1.71,0,0,0,.25.22l4.66,3.47H15.32L20,93.17a1.71,1.71,0,0,0,.25-.22,4.6,4.6,0,0,1,3.41-1.51H82.26A4.6,4.6,0,0,1,85.67,93Zm-22-5H42.21a26.38,26.38,0,0,0,3.24-8.83h15A26.52,26.52,0,0,0,63.69,87.94ZM102.4,67.36a8.26,8.26,0,0,1-8.25,8.25H11.75A8.26,8.26,0,0,1,3.5,67.36V19.11a8.26,8.26,0,0,1,8.25-8.25H35.53v6.5H16.75A6.76,6.76,0,0,0,10,24.11V62.36a6.76,6.76,0,0,0,6.75,6.75h72.4a6.76,6.76,0,0,0,6.75-6.75V24.11a6.76,6.76,0,0,0-6.75-6.75h-8v-6.5h13a8.26,8.26,0,0,1,8.25,8.25Z"></path> </g> </g> </svg> 