<?xml version="1.0" encoding="UTF-8"?> <svg xmlns="http://www.w3.org/2000/svg" viewBox="0 0 105.9 93.47"> <defs> <style>.cls-1{fill:#fff;}</style> </defs> <title>Ресурс 4</title> <g id="Слой_2" data-name="Слой 2"> <g id="OUTLINE"> <path class="cls-1" d="M91.76,0H14.14A14.15,14.15,0,0,0,0,14.14V53.19A14.15,14.15,0,0,0,14.14,67.32H35.62l-4.28,24.1A1.75,1.75,0,0,0,34.22,93L63,67.32H91.76A14.15,14.15,0,0,0,105.9,53.19v-39A14.15,14.15,0,0,0,91.76,0ZM102.4,53.19A10.65,10.65,0,0,1,91.76,63.82H62.31a1.72,1.72,0,0,0-1.16.45L35.67,87l3.76-21.16a1.76,1.76,0,0,0-1.73-2.06H14.14A10.65,10.65,0,0,1,3.5,53.19v-39A10.65,10.65,0,0,1,14.14,3.5H91.76A10.65,10.65,0,0,1,102.4,14.14Z"></path> <path class="cls-1" d="M53.18,16.72,53,17l-.23-.23A15.39,15.39,0,0,0,31,38.48C51.8,59.06,52.33,61.1,54.19,59.24L75,38.48A15.39,15.39,0,0,0,53.18,16.72ZM72.47,36,53,55.53,33.43,36A11.89,11.89,0,0,1,50.25,19.19l1.46,1.47a1.76,1.76,0,0,0,2.48,0l1.47-1.47A11.89,11.89,0,0,1,72.47,36Z"></path> </g> </g> </svg> 