<?xml version="1.0" encoding="UTF-8"?> <svg xmlns="http://www.w3.org/2000/svg" viewBox="0 0 98.5 105.89"> <defs> <style>.cls-1{fill:#fff;}</style> </defs> <title>Ресурс 2</title> <g id="Слой_2" data-name="Слой 2"> <g id="OUTLINE"> <path class="cls-1" d="M53.28,8.92H64.65a1.75,1.75,0,0,0,0-3.5H53.28a1.75,1.75,0,0,0,0,3.5Z"></path> <path class="cls-1" d="M97.21,44.92l-.64-.87a6.63,6.63,0,0,0-2.46-2,6.56,6.56,0,0,0,1.28-9.11L94.74,32a6.58,6.58,0,0,0-9.2-1.38l-3.64,2.7V1.75A1.75,1.75,0,0,0,80.15,0H37.78A1.75,1.75,0,0,0,36,1.75V18.42a8.28,8.28,0,0,0-4.16-.77,6.59,6.59,0,0,0-6.58,6.58V35.48c0,16.33-7.94,23.59-10.79,28.26l-1.41-2.2A1.75,1.75,0,0,0,10.67,61L.8,67.37a1.76,1.76,0,0,0-.52,2.42L23,105.09a1.76,1.76,0,0,0,2.42.53l9.87-6.36a1.75,1.75,0,0,0,.52-2.42L34.2,94.31h8.22A13.12,13.12,0,0,0,48.23,93l20-10h12a1.75,1.75,0,0,0,1.75-1.75V76.47l1.44-1.06,9-6.65A6.6,6.6,0,0,0,95,63.46a6.57,6.57,0,0,0-3.75-5.92l4.62-3.42A6.59,6.59,0,0,0,97.21,44.92ZM87.62,33.48a3.08,3.08,0,0,1,4.31.64l.64.87a3.08,3.08,0,0,1-.64,4.3h0c-12.67,9.37-12,9-12.56,9.24a3.62,3.62,0,0,1-3.75-6.15ZM72.71,53.58a37.13,37.13,0,0,0-.86-4.37A7.1,7.1,0,0,0,75,51.85S73.27,53.08,72.71,53.58Zm1.85,11.79.12.06a9.66,9.66,0,0,0-2.8,2.68,33.93,33.93,0,0,0,.79-4A7.06,7.06,0,0,0,74.56,65.37ZM49.84,68.64a33.06,33.06,0,0,1-1.46-9.93c0-7.45,2.25-14.19,5.8-17.65a10.22,10.22,0,0,0,9.57,0c3.55,3.45,5.8,10.19,5.8,17.65a33.38,33.38,0,0,1-1.46,9.93ZM62.91,37.48a6.85,6.85,0,0,1-7.9,0,6.77,6.77,0,1,1,7.9,0Zm7.76,8.18a21.21,21.21,0,0,0-4.14-6.76,10.28,10.28,0,1,0-15.13,0c-4,4.21-6.52,11.7-6.52,19.81a37.21,37.21,0,0,0,1.32,9.93H39.53V14.35H78.4V36l-4.87,3.62A7,7,0,0,0,70.67,45.66ZM78.4,3.5v7.35H39.53V3.5ZM25,101.73,4.17,69.37l6.92-4.46,18.42,28.6s0,0,0,0l2.39,3.72ZM46.66,89.81a9.41,9.41,0,0,1-4.24,1H31.94L16.55,66.92c3.51-5.72,12.24-13.64,12.24-31.44V24.23a3.09,3.09,0,0,1,3.08-3.08H33A3.08,3.08,0,0,1,36,24.23v57A1.75,1.75,0,0,0,37.78,83H60.34ZM39.53,79.49V72.14H71a6.55,6.55,0,0,0,7.45,5.92v1.43ZM86.55,61a3.08,3.08,0,1,1,3.67,5l-8.84,6.56-2,1-2.22,1.11A3,3,0,0,1,75,73.38a3.07,3.07,0,0,1,.63-4.31L86.53,61Zm7.2-9.69C78.49,62.6,79.6,61.82,79.26,62a3.61,3.61,0,0,1-4-6c6.14-4.57,5.91-4.35,6.13-4.59.4-.25,8.52-6.28,8-5.89a3.07,3.07,0,0,1,4.31.64l.64.87A3.08,3.08,0,0,1,93.75,51.31Z"></path> </g> </g> </svg> 