<?xml version="1.0" encoding="UTF-8"?> <svg xmlns="http://www.w3.org/2000/svg" viewBox="0 0 98.01 102.31"> <defs> <style>.cls-1{fill:#fff;}</style> </defs> <title>Ресурс 3</title> <g id="Слой_2" data-name="Слой 2"> <g id="OUTLINE"> <path class="cls-1" d="M97.08,93.94C97,93.78,86.49,77.65,82,71.14c-5.11-7.33-11.72-8.28-16.19-10.21l-2.74-1.4c-1.9-1-1.4-2.8-2.43-6.76a18.26,18.26,0,0,0,4.2-5.35.67.67,0,0,0,.06-.12,18.14,18.14,0,0,0,1.88-6.42,6.88,6.88,0,0,0,.6-13.6c.18-4.64.21-12.92.21-13C67.58,5.07,60.8,0,48.5,0,37.81,0,29.27,3.85,29.43,14.54c.13,20.11-.05-.69.21,12.74a6.88,6.88,0,0,0,.6,13.6,18.12,18.12,0,0,0,1.87,6.42l.06.12a18.58,18.58,0,0,0,4,5.2c-.93,4-.34,5.94-2.31,6.94l-2.67,1.37c-3.86,1.68-11.3,2.93-16.39,10.87C10.64,78.3,1,93.81,1,93.9a5.37,5.37,0,0,0,4.42,8.41H92.63A5.37,5.37,0,0,0,97.08,93.94ZM72.32,67.24H63.79l1.93-2.6C70.07,66.31,70.7,66.42,72.32,67.24Zm-9.86-4.09-3,4.09H52L59,60.32A7.5,7.5,0,0,0,62.46,63.15Zm-14-9.3a14.86,14.86,0,0,1-13-7.58,13.12,13.12,0,0,1,25.92,0A14.83,14.83,0,0,1,48.5,53.85ZM33.05,24.9a9.31,9.31,0,0,0,7.26-7.16.56.56,0,0,1,.51-.49H56.19a.56.56,0,0,1,.5.48A9.34,9.34,0,0,0,64,24.9c-.66,16.48-.56,14.63-.69,15.78a16.65,16.65,0,0,0-29.54,0C33.55,39.06,33.72,41,33.05,24.9ZM69.47,34A3.39,3.39,0,0,1,67,37.3l.25-6.42A3.33,3.33,0,0,1,69.47,34ZM48.5,3.5c15.58,0,15.58,8.1,15.58,10.76l0,7A5.81,5.81,0,0,1,60.11,17a4,4,0,0,0-3.92-3.24H40.82A4,4,0,0,0,36.89,17,5.8,5.8,0,0,1,33,21.3l0-6.8C32.8,5.9,39.89,3.5,48.5,3.5ZM27.54,34a3.32,3.32,0,0,1,2.24-3.16l.26,6.4A3.36,3.36,0,0,1,27.54,34Zm21,23.31a18.36,18.36,0,0,0,9-2.36l.3,1.53-9.3,9.3-9.4-9.4.26-1.51A18.4,18.4,0,0,0,48.5,57.35ZM38,60.29l7,6.95H37.57l-3-4.09A7.33,7.33,0,0,0,38,60.29Zm-6.72,4.34,1.93,2.61H24.81C26.73,66.23,27.29,66.18,31.29,64.63ZM3.88,95.82c.1-.16,9.72-15.65,13.89-22.13l.08-.12,2.4,25.24H5.37A1.87,1.87,0,0,1,3.88,95.82Zm19.89,3L21.32,73.1a2.15,2.15,0,0,1,2.14-2.36H73.54a2.16,2.16,0,0,1,2.15,2.36L73.24,98.81Zm68.86,0H76.76l2.41-25.38c0-.07,0-.13,0-.2,4.5,6.52,14.86,22.46,15,22.65A1.87,1.87,0,0,1,92.63,98.81Z"></path> <path class="cls-1" d="M53.08,40.54h0A23,23,0,0,0,45,40.35l-1.19.19a4.47,4.47,0,0,0-3.76,4.86,4.39,4.39,0,0,0,4.36,3.88,22.88,22.88,0,0,0,3.14-.48,5.38,5.38,0,0,1,1.79,0l2.39.41a4.38,4.38,0,0,0,5.1-3.81A4.46,4.46,0,0,0,53.08,40.54Zm-.74,5.22-2.4-.41a8.77,8.77,0,0,0-3,0l-2.39.41a.88.88,0,0,1-1-.77,1,1,0,0,1,.86-1c1.5-.06,1.63-.88,8.1,0a1,1,0,0,1,.87,1A.89.89,0,0,1,52.34,45.76Z"></path> <path class="cls-1" d="M44.29,80.81c-2.18,1.57-3.42,6.37-.29,9.49a6.43,6.43,0,0,0,4.53,1.88,6.8,6.8,0,0,0,5-2.22,6.54,6.54,0,0,0-9.23-9.15Zm6.4,7.09a3,3,0,1,1-.14-4.18A3.15,3.15,0,0,1,50.69,87.9Z"></path> </g> </g> </svg> 