<?xml version="1.0" encoding="UTF-8"?> <svg xmlns="http://www.w3.org/2000/svg" viewBox="0 0 105.9 80.28"> <defs> <style>.cls-1{fill:#fff;}</style> </defs> <title>Ресурс 1</title> <g id="Слой_2" data-name="Слой 2"> <g id="OUTLINE"> <path class="cls-1" d="M99.05,0H63.29a6.86,6.86,0,0,0-6.85,6.86V17H6.92A6.93,6.93,0,0,0,0,23.87V73.36a6.93,6.93,0,0,0,6.92,6.92h84.4a6.93,6.93,0,0,0,6.92-6.92V43.67h.81a6.86,6.86,0,0,0,6.85-6.86V6.86A6.86,6.86,0,0,0,99.05,0ZM94.74,73.36a3.42,3.42,0,0,1-3.42,3.42H6.92A3.42,3.42,0,0,1,3.5,73.36V23.87a3.42,3.42,0,0,1,3.42-3.42H56.44V36.81a6.86,6.86,0,0,0,6.85,6.86H94.74Zm7.66-36.55a3.36,3.36,0,0,1-3.35,3.36H63.29a3.36,3.36,0,0,1-3.35-3.36V6.86A3.35,3.35,0,0,1,63.29,3.5H99.05a3.35,3.35,0,0,1,3.35,3.36Z"></path> <path class="cls-1" d="M81.17,7.29A14.55,14.55,0,1,0,95.71,21.84,14.57,14.57,0,0,0,81.17,7.29Zm0,25.59a11,11,0,1,1,11-11A11.06,11.06,0,0,1,81.17,32.88Z"></path> <path class="cls-1" d="M46.15,26.1H15.65a1.75,1.75,0,0,0-1.75,1.75V58.36a1.75,1.75,0,0,0,1.75,1.75h30.5a1.75,1.75,0,0,0,1.75-1.75V27.85A1.75,1.75,0,0,0,46.15,26.1ZM44.4,56.61h-27v-27h27Z"></path> <path class="cls-1" d="M25.82,65.42H15.65a1.75,1.75,0,0,0,0,3.5H25.82a1.75,1.75,0,1,0,0-3.5Z"></path> <path class="cls-1" d="M46.15,65.42H36a1.75,1.75,0,1,0,0,3.5H46.15a1.75,1.75,0,0,0,0-3.5Z"></path> </g> </g> </svg> 