<?xml version="1.0" encoding="UTF-8"?> <svg xmlns="http://www.w3.org/2000/svg" viewBox="0 0 105.9 105.9"> <defs> <style>.cls-1{fill:#fff;}</style> </defs> <title>Ресурс 5</title> <g id="Слой_2" data-name="Слой 2"> <g id="OUTLINE"> <path class="cls-1" d="M53,12.82A40.13,40.13,0,0,0,23.41,80.11h0l0,0a40.14,40.14,0,0,0,59,0l0,0h0A40.13,40.13,0,0,0,53,12.82Zm0,3.5A36.62,36.62,0,0,1,81.22,76.23a37.05,37.05,0,0,0-56.54,0A36.62,36.62,0,0,1,53,16.32Zm0,73.26A36.76,36.76,0,0,1,27.06,78.85a33.54,33.54,0,0,1,51.78,0A36.76,36.76,0,0,1,53,89.58Z"></path> <path class="cls-1" d="M53,54.2A13.92,13.92,0,1,0,39,40.28,13.94,13.94,0,0,0,53,54.2Zm0-24.33A10.42,10.42,0,1,1,42.53,40.28,10.43,10.43,0,0,1,53,29.87Z"></path> <path class="cls-1" d="M53,0a53,53,0,1,0,53,53A53,53,0,0,0,53,0Zm0,102.4A49.45,49.45,0,1,1,102.4,53,49.5,49.5,0,0,1,53,102.4Z"></path> </g> </g> </svg> 